<?xml version="1.0" encoding="utf-8"?>
<!-- Generator: Adobe Illustrator 23.1.0, SVG Export Plug-In . SVG Version: 6.00 Build 0)  -->
<svg version="1.1" id="Layer_1" xmlns="http://www.w3.org/2000/svg" xmlns:xlink="http://www.w3.org/1999/xlink" x="0px" y="0px"
	 viewBox="0 0 500 320" style="enable-background:new 0 0 500 320;" xml:space="preserve">
<style type="text/css">
	.st0{fill-rule:evenodd;clip-rule:evenodd;fill:#C0BDBC;}
	.st1{fill-rule:evenodd;clip-rule:evenodd;fill:#FEC84D;}
	.st2{fill:#3C3C3C;}
	.st3{fill:#DA9762;}
	.st4{fill:#FFA9A8;}
	.st5{fill:#396DC1;}
	.st6{fill:#2B5BA0;}
	.st7{fill:#ECEAF5;}
	.st8{fill:#171E24;}
	.st9{fill:#35343A;}
	.st10{fill:#D6ECFF;}
	.st11{fill-rule:evenodd;clip-rule:evenodd;fill:#E9DEFF;}
	.st12{fill:none;}
	.st13{fill:#D8D7E0;}
	.st14{fill:#181A19;}
	.st15{fill:none;stroke:#223A7A;stroke-width:2.4616;stroke-linecap:round;stroke-linejoin:round;stroke-miterlimit:10;}
	.st16{fill:#FBFBFF;}
	.st17{fill-rule:evenodd;clip-rule:evenodd;fill:#A25D24;}
	.st18{fill:#FFFFFF;}
	.st19{fill:#4F2A0F;}
	.st20{fill:#1D8250;}
	.st21{fill:#F9F8FF;}
	.st22{fill:#2AB876;}
	.st23{fill:#EDEDED;}
	.st24{fill-rule:evenodd;clip-rule:evenodd;fill:#E8E8E8;}
	.st25{fill-rule:evenodd;clip-rule:evenodd;fill:#D4D4D4;}
	.st26{fill-rule:evenodd;clip-rule:evenodd;fill:#D24A2F;}
	.st27{fill-rule:evenodd;clip-rule:evenodd;fill:#FFFFFF;}
	.st28{fill:#707070;}
	.st29{fill-rule:evenodd;clip-rule:evenodd;fill:#AE6125;}
	.st30{fill:#FFBFA9;}
	.st31{fill-rule:evenodd;clip-rule:evenodd;fill:#0E7797;}
	.st32{fill:#EFAD9C;}
	.st33{fill:#C6DEE0;}
	.st34{fill:#C4D6D5;}
	.st35{fill:none;stroke:#F0F3FA;stroke-width:1.9049;stroke-linecap:round;stroke-linejoin:round;stroke-miterlimit:10;}
	.st36{fill:#AE6125;}
	.st37{fill:#C17E52;}
</style>
<g>
	<g>
		<path class="st0" d="M241.8,305.9L241.8,305.9c-1.2-0.5-1.7-1.8-1.2-2.9l43.2-107c0.5-1.2,1.8-1.7,2.9-1.2l0,0
			c1.2,0.5,1.7,1.8,1.2,2.9l-43.2,107C244.2,305.8,243,306.4,241.8,305.9z"/>
		<path class="st0" d="M305.1,252h-35.9c-0.9,0-1.8-0.8-1.8-1.8l0,0c0-0.9,0.8-1.8,1.8-1.8h35.9c0.9,0,1.8,0.8,1.8,1.8l0,0
			C306.9,251.3,306.1,252,305.1,252z"/>
		<path class="st0" d="M298.5,307L298.5,307c-1.2-0.5-1.7-1.8-1.2-2.9L338.1,203c0.5-1.2,1.8-1.7,2.9-1.2l0,0
			c1.2,0.5,1.7,1.8,1.2,2.9l-40.8,101.1C301,306.8,299.6,307.4,298.5,307z"/>
		<path class="st0" d="M384.4,307L384.4,307c1.2-0.5,1.7-1.8,1.2-2.9L344.8,203c-0.5-1.2-1.8-1.7-2.9-1.2l0,0
			c-1.2,0.5-1.7,1.8-1.2,2.9l40.8,101.1C381.8,306.8,383.2,307.4,384.4,307z"/>
		<path class="st0" d="M330,307L330,307c1.2-0.5,1.7-1.8,1.2-2.9L290.5,203c-0.5-1.2-1.8-1.7-2.9-1.2l0,0c-1.2,0.5-1.7,1.8-1.2,2.9
			l40.8,101.1C327.6,306.8,328.8,307.4,330,307z"/>
		<path class="st0" d="M361.2,252h-38.5c-0.9,0-1.8-0.8-1.8-1.8l0,0c0-0.9,0.8-1.8,1.8-1.8h38.5c0.9,0,1.8,0.8,1.8,1.8l0,0
			C363.1,251.3,362.3,252,361.2,252z"/>
		<path class="st1" d="M354.7,220.4h-84.6c-5.5,0-9.9-4.4-9.9-9.9l0,0c0-5.5,4.4-9.9,9.9-9.9h84.6c5.5,0,9.9,4.4,9.9,9.9l0,0
			C364.7,215.8,360.2,220.4,354.7,220.4z"/>
	</g>
	<path class="st2" d="M342.7,198.9c0,0-10,4.3-55.1,17.4l-8.5,2.6c-4.1,1.2-8.7-2.9-10.7-9.4l0,0c-2-6.5-0.5-13.2,3.5-15.2
		l34.5-19.8l-3.7-11.4l30.1-9.4C347.7,149.5,346.2,194,342.7,198.9z"/>
	<path class="st2" d="M306,190.9c0,0-12.3,6.5-53.6,22.7l-7.9,3.2c-3.7,1.5-8.1-2.4-10-9l0,0c-2-6.5-0.8-13.5,2.9-15.7l52.7-33
		C302.3,152.5,315.4,183.7,306,190.9z"/>
	<path class="st3" d="M235.5,161.9c13.4-6.7,28.5-11.6,35.9-17c1.8-1.2,2-4,0.5-6.1l-2.6-3.7c-1.2-1.8-3.5-2.4-5-1.4l-32.7,21.8
		c-1.2,0.9-1.5,3.7-0.3,5.2l0,0C232.3,162.1,234.2,162.5,235.5,161.9z"/>
	<path class="st4" d="M280.7,89.8L261.4,135c-0.8,1.7-0.5,5.3,1.5,6.4l1.2,0.6c3.2,1.7,7.2,1.1,8.7-1.5L297,99.8
		c0,0,8.8-10.7-6.8-15.2C284.8,83.1,280.7,89.8,280.7,89.8z"/>
	<polygon class="st4" points="317.6,87.5 317.6,87.5 315.4,87.4 313.3,87.2 313.3,87.4 284.5,86.7 289.9,141.8 341.9,149.3 
		347.7,92.7 	"/>
	<path class="st5" d="M342.1,86.1c0,0,3.2,80.5,0,80.1c-9.6-1.7-31,0.6-42.3,0.5c-11.3-0.2-11.7-5.9-11.7-5.9s-3.2-3.5-1.1-6.4
		c2.1-2.9-1.1-7.2,1.1-9.6c2.1-2.4-5.2-35.2-5.2-35.2s-0.3-22.8,3.7-25.4c4-2.6,20.7-8.8,20.7-8.8l18.9,7.3l4.1-4.4L342.1,86.1z"/>
	<path class="st6" d="M306.6,72.4l-6.1,4.3l0.8,4.6l1.5,7.9l9.4-10C312.4,79.1,306.3,78.1,306.6,72.4z"/>
	<path class="st6" d="M323,72.6l7.3,5.5l-1.7,3.2l-12.8,8.7l-3.3-11C312.4,79.1,323.3,78.7,323,72.6z"/>
	<path class="st7" d="M287.4,83.4c0,0-7,1.8-12.8,17.4c-7.3,19.3-13.7,31-13.7,31s-4.9,0.8-5.3,3.7c-0.5,2.9,4.7,2.7,5.3,6.8
		c0.6,4,4.1,8.1,5.9,7.8c2-0.3,3.7-1.1,4.1-3s4.3-1.7,4-4.6c-0.3-2.7,12.3-23.6,12.3-23.6V83.4H287.4z"/>
	<path class="st7" d="M287.4,83.4c0,0-6.5,28.9-4.6,41.4c2,12.3,3.2,14.3,2.1,18.3c-1.2,4,1.1,9.3,0.5,9.1
		c-0.6-0.2-5.6,11.6-8.2,13.1c-2.6,1.7-43.8,18.7-39.9,26.6c0,0,8.5-3,11.4,0c3.3,3.3,23.6-10.2,33-14.9
		c11.1-5.5,13.7-9.7,13.2-22.2c0-0.5,0-0.9,0-1.2c-0.9-13.5-1.8-40-1.8-40s3.3-32.3,5.6-34.7C301.1,76.5,287.4,83.4,287.4,83.4z"/>
	<path class="st3" d="M269.9,286.4c-2.9-25.4-6.1-41.9-4.4-65c-0.3-4.6,3.2-8.4,7.8-8.4l0,0c4.4,0,7,3.8,8.2,8.1
		c5.5,20.1-2,47.9-1.7,70c0,3.2-2.3,1.4-4.7,1.2l0,0C272.4,292.7,270.1,289.9,269.9,286.4z"/>
	<path class="st2" d="M281.9,200.4c5.9-0.2,2.3,8.8,2.7,15.2c0.9,10.2,2,25.7,0.8,37.7c-1.1,11-2.1,18.3-2.4,23.7
		c-0.2,2.7,2.3,3.7,0,7c-4.4,2.3-9.6,2.1-15.1,0.5c0,0-5.2-49.6-5.3-54.2c-0.2-2.1-0.9-14.9-0.9-20.5c-0.2-6.4,2.9-9.9,12.6-14.9
		L281.9,200.4z"/>
	<path class="st3" d="M236,286.4c-2.9-25.4-6.1-41.9-4.4-65c-0.3-4.6,3.2-8.4,7.8-8.4l0,0c4.4,0,7,3.8,8.2,8.1
		c5.5,20.1-2,47.9-1.7,70c0,3.2-2.3,1.4-4.7,1.2l0,0C238.4,292.7,236.3,289.9,236,286.4z"/>
	<path class="st2" d="M245.4,194.8c4.3-0.2,0,3.8,4.4,11.7c2.1,3.7,1.8,5.6,0.8,6.7c-0.6,0.6,0.2,1.7,0.2,2.4
		c0.9,10.2,1.8,25.6,0.8,37.7c-0.9,11.6-3.7,20.2-2.1,25.1c1.5,4.9,0.8,6.4-0.5,5.8c-4,2.6-9.3,2-15.1,0.5c0,0-0.2-2.1-0.6-5.5
		c-1.4-13.1-4.6-45.1-4.7-48.7c-0.2-2.1-1.5-20.1-1.7-25.7c-0.2-6.4,0.5-7.5,10.2-12.5L245.4,194.8z"/>
	<g>
		<path class="st8" d="M241,306.5h7.2c0.6,0,1.1-0.8,1.1-1.8l0,0c0-1.1-0.5-1.8-1.1-1.8H241c-0.6,0-1.1,0.8-1.1,1.8l0,0
			C239.9,305.8,240.4,306.5,241,306.5z"/>
		<path class="st9" d="M247.4,292.4v-1.2c0-0.8-0.6-1.2-1.4-1.2c-4.9,2.1-4-0.6-7.6-2.7c-0.9-0.6-2.1-0.5-3,0.2
			c-2.9,2-11,10.5-15.2,11.1c-4.1,0.6-7,1.2-7.3,1.5c-2,1.8-1.2,5.2,1.7,5.3c8.4,0.3,17.5,1.4,24.5-0.9l1.5-0.5l8.7,0.8
			C249.1,299.5,250.1,296.5,247.4,292.4z"/>
		<g>
			<g>
				<g>
					<path class="st8" d="M224.4,307c-5,0-8.5-1.2-11.4-1.8c-1.2-0.3-1.8-1.4-1.4-2.3v-0.2c0.2,0,8.4,2.4,15.2,2.3
						c6.8-0.2,12.8-2.1,12.8-2.3h0.2h9.3v2h-8.7c-1.2,0.5-6.8,2.1-13.4,2.3C226.7,307,224.7,307,224.4,307z"/>
				</g>
			</g>
		</g>
		<g>
			<g>
				<path class="st8" d="M226.7,294.7c0.3,0.3,0.6,0.6,0.9,0.9c0.3,0.3,0.9,0.2,1.2-0.2c0.3-0.3,0.2-0.8-0.2-1.1
					c-0.3-0.3-0.6-0.6-0.9-0.9c-0.3-0.3-0.9-0.2-1.2,0.2C226.2,293.9,226.4,294.3,226.7,294.7L226.7,294.7z"/>
			</g>
		</g>
		<g>
			<path class="st8" d="M223.6,297.2c0.3,0.3,0.6,0.5,0.8,0.8c0.3,0.3,0.9,0.3,1.2,0c0.3-0.3,0.3-0.8,0-1.1
				c-0.3-0.3-0.6-0.5-0.8-0.8c-0.3-0.3-0.9-0.3-1.2,0C223.3,296.5,223.3,296.9,223.6,297.2L223.6,297.2z"/>
		</g>
	</g>
	<g>
		<path class="st8" d="M274.9,306.5h7.2c0.6,0,1.1-0.8,1.1-1.8l0,0c0-1.1-0.5-1.8-1.1-1.8h-7.2c-0.6,0-1.1,0.8-1.1,1.8l0,0
			C273.9,305.8,274.3,306.5,274.9,306.5z"/>
		<path class="st9" d="M281.3,292.4v-1.2c0-0.8-0.6-1.2-1.4-1.2c-4.9,2.1-4-0.6-7.6-2.7c-0.9-0.6-2.1-0.5-3,0.2
			c-2.9,2-11,10.5-15.2,11.1c-4.1,0.6-7,1.2-7.3,1.5c-2,1.8-1.2,5.2,1.7,5.3c8.4,0.3,17.5,1.4,24.5-0.9l1.5-0.5l8.7,0.8
			C283,299.5,284.1,296.5,281.3,292.4z"/>
		<g>
			<g>
				<path class="st8" d="M258.4,307c-5,0-8.5-1.2-11.4-1.8c-1.2-0.3-1.8-1.4-1.4-2.3v-0.2c0.2,0,8.4,2.4,15.2,2.3
					c6.8-0.2,12.8-2.1,12.8-2.3h0.2h9.3v2h-8.7c-1.2,0.5-6.8,2.1-13.4,2.3C260.6,307,258.7,307,258.4,307z"/>
			</g>
		</g>
		<g>
			<path class="st8" d="M260.6,294.7c0.3,0.3,0.6,0.6,0.9,0.9c0.3,0.3,0.9,0.2,1.2-0.2c0.3-0.3,0.2-0.8-0.2-1.1
				c-0.3-0.3-0.6-0.6-0.9-0.9c-0.3-0.3-0.9-0.2-1.2,0.2C260.2,293.9,260.3,294.3,260.6,294.7L260.6,294.7z"/>
		</g>
		<g>
			<path class="st8" d="M257.6,297.2c0.3,0.3,0.6,0.5,0.8,0.8c0.3,0.3,0.9,0.3,1.2,0c0.3-0.3,0.3-0.8,0-1.1
				c-0.3-0.3-0.6-0.5-0.8-0.8c-0.3-0.3-0.9-0.3-1.2,0C257.3,296.5,257.3,296.9,257.6,297.2L257.6,297.2z"/>
		</g>
	</g>
	<path class="st10" d="M306.3,144.7c0,0.5,0.5,0.9,0.9,0.9s0.9-0.5,0.9-0.9s-0.5-0.9-0.9-0.9S306.3,144.1,306.3,144.7z"/>
	<path class="st11" d="M303.4,154"/>
	<g>
		<path class="st3" d="M295.6,146.4l-12.5-0.3c-0.5,0-0.8,0.2-1.2,0.3c-1.5,0.8-5.8,3-10.5,5.6c-0.6,0.3-1.2,2.4,0.9,1.7
			c0,0-1.5,0.9-1.2,3c0,0.3,0.2,0.5,0.2,0.8c0.3,1.5,1.7,2.4,2.9,2c4-1.2,11.9-3.3,13.4-2.9c4.6,1.2,8.8-0.9,9.7-1.4
			c0,0,2.9-2.1,2.3-5.2v-0.2C299.1,147.8,297.5,146.4,295.6,146.4z"/>
		<line class="st12" x1="283.8" y1="148.5" x2="272.5" y2="153.6"/>
		<line class="st12" x1="282.7" y1="151.7" x2="271.4" y2="156.8"/>
		<line class="st12" x1="282.9" y1="154.6" x2="272.5" y2="158.4"/>
	</g>
	<path class="st13" d="M265.4,136.8c-0.3,0-0.5-0.2-0.6-0.3c-0.9-2.1-4.6-4.1-4.6-4.3c-0.3-0.2-0.5-0.5-0.3-0.8
		c0.2-0.3,0.5-0.5,0.8-0.3c0.2,0.2,4.1,2.3,5.2,4.7c0.2,0.3,0,0.6-0.3,0.8C265.5,136.8,265.5,136.8,265.4,136.8z"/>
	<g>
		<g>
			<path class="st14" d="M293.8,109h-0.2c-1.1,0-2-0.9-2-2c0-0.6,0.5-0.9,1.1-0.9c0.5,0,0.9,0.5,0.9,0.9l0,0c0.2-2.4,0.3-5,0.3-7.5
				c0.2-4.7,0.5-9.6,1.1-14.3c0.8-4.7,6.2-12.8,12.9-14c0.5-0.2,1.1,0.3,1.1,0.8c0.2,0.5-0.3,1.1-0.8,1.1
				c-5.6,0.9-10.7,8.1-11.3,12.3c-0.6,4.6-0.9,9.4-1.1,14c-0.2,2.6-0.2,5.2-0.5,7.8C295.6,108.4,294.9,109,293.8,109z"/>
			<path class="st15" d="M304.2,74.1"/>
		</g>
		<g>
			<path class="st14" d="M289.9,108.1c-1.1,2.7,0.2,5.6,2.9,6.8c2.7,1.1,5.6-0.2,6.8-2.9c1.1-2.7-0.2-5.6-2.9-6.8
				C294,104.1,290.9,105.3,289.9,108.1z"/>
			<path class="st16" d="M291.1,107.4c-0.8,2,0.2,4.4,2.3,5.2c2,0.8,4.4-0.2,5.2-2.3c0.8-2-0.2-4.4-2.3-5.2
				C294.3,104.4,291.8,105.3,291.1,107.4z"/>
			<path class="st14" d="M291.2,105.8c-0.8,2,0.2,4.4,2.3,5.2c2,0.8,4.4-0.2,5.2-2.3c0.8-2-0.2-4.4-2.3-5.2
				C294.4,102.7,292.1,103.8,291.2,105.8z"/>
		</g>
	</g>
	<rect x="121.4" y="157.5" class="st0" width="7.2" height="149"/>
	<rect x="360.9" y="157.5" class="st0" width="7.2" height="149"/>
	<rect x="415.9" y="157.5" class="st0" width="7.2" height="149"/>
	<rect x="181.2" y="157.5" class="st0" width="7.2" height="149"/>
	<path class="st7" d="M345.1,109.4l0.6,35.8c0,0-0.6,17.7,0,19.5c0.6,1.8,6.2,32-5,37.4c-11.3,5.6-41.4,12.6-45.7,16.6
		c-4.3,4-5.8,8.7-8.1,6.7c-2.1-1.8,0.9-19.5-3.7-24.2c-2.4-2.4-7.3-4.1-10.7-4.1c-2,0,6.2-4.6,8.1-5.2c8.2-3.2,21-9.4,23.3-12.3
		c3.2-4,7.2-20.9,7.6-26c0.3-5.2-4.4-48.1,4-60.3c8.5-12.2,10-15.8,13.1-16.9c3-1.1,15.4,17.8,15.4,17.8L345.1,109.4z"/>
	<path class="st7" d="M323.6,138.3c0,0-2.7,0.5-1.1,2.9c1.7,2.3,9.9,4.7,10.2,9.4c0.3,4.7,6.4,4,7,2.4c0.8-1.5,4.3-5.2,4.9-8.5
		c0.6-3.3,3.5-13.7,4.7-18.7c1.1-4.9,3.3-17.4,2.9-18.6c-0.5-1.2,1.4-14.2-2.4-19c-3.8-4.9-17-8.2-17-8.2l-4.3,20.7L323.6,138.3z"/>
	<path class="st3" d="M298.7,154.3c14.6-3,29.2-1.2,36.2-6.7c6.2-4.7-4.3-11.7-5.9-11.1l-33.3,11c-1.4,0.5-2,3-1.2,4.6l0,0
		C295.5,153.7,297.3,154.6,298.7,154.3z"/>
	<path class="st17" d="M422.1,161.2H117c-2,0-3.7-1.7-3.7-3.7l0,0c0-2,1.7-3.7,3.7-3.7h305.3c2,0,3.7,1.7,3.7,3.7l0,0
		C425.8,159.5,424.1,161.2,422.1,161.2z"/>
	<path class="st13" d="M328.2,126.3C328.1,126.3,328.1,126.3,328.2,126.3c-0.5,0-0.6-0.3-0.6-0.8c0.2-0.8,3.3-20.5,5.5-25.9
		c0.2-0.3,0.5-0.5,0.8-0.3c0.3,0.2,0.5,0.5,0.3,0.8c-2.1,5.2-5.3,25.4-5.3,25.6C328.7,126.2,328.5,126.3,328.2,126.3z"/>
	<path class="st13" d="M281,126.3L281,126.3c-0.5,0-0.6-0.3-0.6-0.8c0.2-0.8,3.3-20.5,5.5-25.9c0.2-0.3,0.5-0.5,0.8-0.3
		c0.3,0.2,0.5,0.5,0.3,0.8c-2.1,5.2-5.3,25.4-5.3,25.6C281.6,126.2,281.3,126.3,281,126.3z"/>
	<g>
		<g>
			<path class="st14" d="M327,98.9c-0.5,0-0.9-0.3-0.9-0.9c-0.2-1.5-0.5-3-0.8-4.6c-0.6-2.7-1.1-5.5-0.9-8.4c0-1.4,0.5-2.4,0.8-3.7
				c0.3-0.9,0.6-1.8,0.6-2.7c0.2-2-0.8-3.5-3.2-5.3l-1.4-0.8c-0.5-0.3-0.6-0.8-0.5-1.4c0.3-0.5,0.8-0.6,1.4-0.5l1.5,0.8
				c0,0,0.2,0,0.2,0.2c2,1.4,4.4,3.7,4.1,7.2c-0.2,1.1-0.5,2.1-0.8,3c-0.3,1.1-0.6,2.1-0.6,3.2c-0.2,2.6,0.3,5.2,0.9,7.9
				c0.3,1.5,0.6,3.2,0.8,4.9C328.1,98.3,327.6,98.9,327,98.9L327,98.9z"/>
		</g>
		<g>
			<path class="st14" d="M319.2,96.9c-0.5,0-0.9-0.3-0.9-0.9c-0.6-4.4,1.8-7.6,4.3-10.5c0.9-1.1,1.7-2.1,2.4-3.2
				c0.3-0.5,0.9-0.6,1.4-0.3c0.5,0.3,0.6,0.9,0.3,1.4c-0.8,1.2-1.7,2.3-2.6,3.5c-2.3,2.7-4.3,5.5-3.8,9.1
				C320.3,96.3,320,96.8,319.2,96.9C319.4,96.9,319.2,96.9,319.2,96.9z"/>
		</g>
		<path class="st18" d="M325.2,100l-4.4,14.6c-1.1,3.2-2,4.9-5.9,3.8c-0.2,0.6-0.3,1.1-0.3,1.7l0.6,0.2c2.9,0.9,5.9-0.8,6.8-3.7
			l5.3-17.5C328.1,96.2,326.1,97.2,325.2,100z"/>
		<path class="st14" d="M313.1,117.8l1.8,0.3c0.6,0.2,1.1,0.8,1.1,1.5l0,0c-0.2,0.6-0.8,1.1-1.5,1.1l-1.8-0.3
			c-0.6-0.2-1.1-0.8-1.1-1.5l0,0C311.9,118.1,312.5,117.6,313.1,117.8z"/>
		<path class="st18" d="M320.1,98.8l2.1,15.1c0.6,3.2,1.2,5,5.2,4.6c0,0.6,0,1.1,0.2,1.7l-0.6,0.2c-3,0.5-5.8-1.7-6.2-4.6l-2.6-18.1
			C317.7,94.5,319.7,95.9,320.1,98.8z"/>
		<path class="st14" d="M329.3,118.3h-1.8c-0.8,0-1.2,0.6-1.2,1.4l0,0c0,0.8,0.6,1.2,1.4,1.2h1.8c0.8,0,1.2-0.6,1.2-1.4l0,0
			C330.6,118.7,330,118.1,329.3,118.3z"/>
		<path class="st14" d="M326.5,98.9h0.5c0.8,0.2,1.4-0.5,1.5-1.1l0,0c0.2-0.8-0.5-1.4-1.1-1.5H327c-0.8-0.2-1.4,0.5-1.5,1.1l0,0
			C325.3,98.2,325.8,98.9,326.5,98.9z"/>
		<path class="st14" d="M318.9,97.9h0.5c0.8,0,1.2-0.6,1.2-1.4l0,0c0-0.8-0.6-1.2-1.4-1.2h-0.5c-0.8,0-1.2,0.6-1.2,1.4l0,0
			C317.6,97.4,318.2,98,318.9,97.9z"/>
	</g>
	<g>
		<path class="st19" d="M431.9,220.8L431.9,220.8c-0.6,0-0.9-0.5-0.9-0.9c0.9-35.5-5.3-69.6-18.6-101.2c-1.1-2.6-1.2-3-1.2-3.5
			s0.5-0.9,0.9-0.9s0.9,0.5,0.9,0.9c0,0.3,0.6,1.5,1.1,2.9c13.2,32,19.5,66.4,18.7,102C432.8,220.5,432.3,220.8,431.9,220.8z
			 M413,115.2L413,115.2L413,115.2z"/>
		<path class="st19" d="M432.8,246.4C432.6,246.4,432.6,246.4,432.8,246.4c-0.6,0-0.9-0.5-0.9-1.1c1.8-31-10.3-79.9-10.5-80.4
			c-0.2-0.5,0.2-1.1,0.6-1.1c0.5-0.2,1.1,0.2,1.1,0.6c0.2,0.5,12.3,49.6,10.5,81C433.7,245.9,433.2,246.4,432.8,246.4z"/>
		<path class="st19" d="M431.9,211.4c-0.5,0-0.9-0.5-0.9-0.9c-3.5-80.2,9-96.5,16.7-99.1h0.2c0.2-0.2,0.5-0.3,0.6-0.2
			c0.5,0,0.9,0.5,0.9,0.9c0,0.8-0.6,0.9-1.1,1.1c-5.8,2-19,15.2-15.4,97.1C432.9,210.9,432.5,211.4,431.9,211.4
			C432,211.4,432,211.4,431.9,211.4z M447.5,112.2L447.5,112.2L447.5,112.2z M447.5,112.2L447.5,112.2L447.5,112.2z"/>
		<path class="st19" d="M432.8,235.6L432.8,235.6c-0.6,0-0.9-0.5-0.9-0.9c1.4-31.7,6.5-49.8,15.5-53.7c5.2-2.3,9.4,1.2,9.6,1.4
			c0.5,0.3,0.5,0.9,0.2,1.4c-0.3,0.5-0.9,0.5-1.4,0.2c-0.2-0.2-3.7-2.9-7.8-1.1c-5.6,2.6-12.8,13.7-14.5,52.2
			C433.7,235.3,433.4,235.6,432.8,235.6z"/>
		<path class="st20" d="M382.9,180.5c0,0-2.1,6.4,0.5,12.8c0,0,10.5-17.8,26.2-20.4c15.7-2.6-1.8-10.8-1.8-10.8L382.9,180.5z"/>
		<path class="st20" d="M435.8,132.4c0,0,13.9-8.2,21.8-7.9c7.9,0.3-9.4-13.9-16.4-9C434.3,120.4,435.8,132.4,435.8,132.4z"/>
		<path class="st20" d="M383.3,88.1c0,0-5.6,8.2-5,14.5c0,0,7.5-4.9,15.8-3.3C402.5,100.6,383.3,88.1,383.3,88.1z"/>
		<path class="st21" d="M431.6,308L431.6,308c-18.7,0-33.8-15.1-33.8-33.8v-30.4h67.6v30.4C465.3,293,450.3,308,431.6,308z"/>
		<path class="st22" d="M418.5,122.8c-0.6,2.4-3.7,3.2-5.3,1.2c-5.5-6.5-15.8-18-22.8-23c-11.4-8.2-10-18.4,5.9-19.3
			c16-1.1,30.4,5.3,25.6,26.2L418.5,122.8z"/>
		<path class="st22" d="M450.4,182.6c0,0-5.2,11.1,9.3,15.8c21.5,7,32.6,31.8,32.6,31.8s0.5-17.8-3.5-31c-4-13.1-7.9-22.2-16.4-25.3
			C463.8,170.9,456.2,170.5,450.4,182.6z"/>
		<line class="st12" x1="405.8" y1="253.1" x2="459" y2="253.1"/>
		<path class="st22" d="M436.7,122.1c0,0,3.8-21.8,29.8-10c16,7.2,14.6,35.3,14.6,35.3C472.2,125.4,447.2,119.6,436.7,122.1z"/>
		<path class="st22" d="M424.1,180.2c-4.9-4.7-19-14.6-41.2,0.2c0,0,2-19.5,21.2-23.1c18.1-3.3,21.3,5.8,22.1,22.1
			C426.1,180.4,424.9,181,424.1,180.2z"/>
		<path class="st22" d="M432,204.9c0,0-12.5-8.4-16.1,9.6s-6.5,25.1-6.5,25.1s22.4-7.5,25-15.7C437,215.5,437.3,206.2,432,204.9z"/>
		<path class="st20" d="M488.9,214.9c-0.2,0-0.3-0.2-0.3-0.3c-5-21.5-30.9-35-31.2-35.2c-0.2-0.2-0.3-0.3-0.2-0.5
			c0.2-0.2,0.3-0.3,0.5-0.2c0.3,0.2,26.3,13.9,31.5,35.6C489.4,214.6,489.2,214.7,488.9,214.9C489.1,214.9,488.9,214.9,488.9,214.9z
			"/>
		<path class="st20" d="M416,119.5c-0.2,0-0.3-0.2-0.3-0.3c0-0.3-4.7-29.4-19.5-36.1c-0.2-0.2-0.3-0.3-0.2-0.5
			c0.2-0.2,0.3-0.3,0.5-0.2c7.9,3.7,12.9,13.4,15.7,21c3,8.2,4.3,15.5,4.3,15.7C416.3,119.2,416.2,119.3,416,119.5
			C416,119.3,416,119.5,416,119.5z"/>
		<path class="st20" d="M414.4,236.4c-0.2,0-0.2,0-0.3-0.2c-0.2-0.2-0.2-0.3,0-0.5c0,0,6.5-5.6,8.4-13.9c1.8-8.2,7.2-17,7.2-17
			c0.2-0.2,0.3-0.2,0.5-0.2c0.2,0.2,0.2,0.3,0.2,0.5s-5.3,8.7-7.2,16.9c-1.8,8.4-8.5,14.2-8.7,14.2
			C414.5,236.4,414.4,236.4,414.4,236.4z"/>
		<path class="st23" d="M465.3,243.8h-0.6c-4.7,42.8-39.1,54.8-55.4,58.1c5,3.8,11.3,6.1,18,6.1h8.5c16.3,0,29.5-13.2,29.5-29.5
			V243.8z"/>
	</g>
	<rect x="237.8" y="150.2" class="st24" width="60" height="3.8"/>
	<path class="st24" d="M253.2,154h-68.8l-20.9-46.3h67.3c0.9,0,1.8,0.6,2.3,1.4L253.2,154z"/>
	<path class="st25" d="M250.4,154h-68.8l-19.8-44.1c-0.5-1.1,0.3-2.1,1.4-2.1h65.6c0.6,0,1.1,0.3,1.4,0.9L250.4,154z"/>
	<path class="st24" d="M208.1,131.2c0.8,2.9-1.4,5.2-5,5.2c-3.5,0-7.2-2.3-7.9-5.2c-0.8-2.9,1.4-5.2,5-5.2
		C203.7,125.9,207.4,128.3,208.1,131.2z"/>
	<path class="st26" d="M230.3,61.8H192c-12.2,0-21.9-9.9-21.9-21.9l0,0C170.1,27.7,180,18,192,18h38.4c12.2,0,21.9,9.9,21.9,21.9
		l0,0C252.4,52,242.5,61.8,230.3,61.8z"/>
	<path class="st27" d="M229.3,74.7L229.3,74.7c0.5-1.4,0.8-2.9,0.8-4.6V49.9c0-7.6-6.1-13.7-13.7-13.7h-69.3
		c-7.6,0-13.7,6.1-13.7,13.7v20.2c0,7.6,6.1,13.7,13.7,13.7h69.1l12.2,6.7c1.8,1.1,4-0.6,3.5-2.6L229.3,74.7z"/>
	<path class="st28" d="M229.6,92.1c-0.6,0-1.2-0.2-1.8-0.5l-11.9-6.5h-68.8c-8.2,0-14.9-6.7-14.9-14.9V49.9
		c0-8.2,6.7-14.9,14.9-14.9h69.1c8.2,0,14.9,6.7,14.9,14.9v20.2c0,1.5-0.3,3-0.8,4.6l2.7,12.9c0.3,1.4-0.3,2.9-1.4,3.7
		C231.1,91.9,230.3,92.1,229.6,92.1z M147.1,37.3c-6.8,0-12.5,5.6-12.5,12.5v20.4c0,6.8,5.6,12.5,12.5,12.5h69.4l12.5,6.8
		c0.6,0.3,1.2,0,1.4-0.2c0.2-0.2,0.6-0.5,0.5-1.2l-2.9-13.5l0.2-0.3c0.5-1.4,0.8-2.7,0.8-4.1V49.9c0-6.8-5.6-12.5-12.5-12.5h-69.3
		V37.3z"/>
	<path class="st28" d="M221.7,54.8h-78.2c-0.6,0-1.2-0.6-1.2-1.2s0.6-1.2,1.2-1.2h78.2c0.6,0,1.2,0.6,1.2,1.2S222.3,54.8,221.7,54.8
		z"/>
	<path class="st28" d="M198.1,67.1h-54.8c-0.6,0-1.2-0.6-1.2-1.2s0.6-1.2,1.2-1.2h54.8c0.6,0,1.2,0.6,1.2,1.2
		C199.3,66.7,198.8,67.1,198.1,67.1z"/>
	<path class="st29" d="M58.2,53.9c0,0-6.8,12.8-6.2,33.8c0.6,21.2-8.7,25.6-8.7,25.6l45.2-4.7c0,0,0.3-12.6,1.5-27.5
		c1.8-20.7-3-22.7-3-22.7L58.2,53.9z"/>
	<path class="st30" d="M88.8,113.1l15.1,31.8c0.6,1.2,2.4,1.5,4.3,0.9l1.2-0.5c3.2-1.1,5.3-3.5,4.7-5.5l-10.2-27.1
		c0,0-4.4-11-12-7.2C86.4,108.5,88.8,113.1,88.8,113.1z"/>
	<path class="st30" d="M130,112.3c-6.4,12.9-11.4,27.4-16.4,34.7c-1.2,1.7-3.5,2.3-5.3,1.1l-3-2c-1.5-0.9-2-3-0.9-4.4l20.4-32.3
		c0.8-1.2,3.2-1.7,4.4-0.8l0,0C130.2,109.4,130.7,111.1,130,112.3z"/>
	<path class="st30" d="M140.9,105.3l-7,7.2c-3.7,2.3-6.2,4.6-9,1.8c-1.2-1.2-1.5-3.3-1.2-4.4l0.6-3.3l4-8.8c0,0,1.4,0.5,0.8,3.3
		c-0.3,1.2-1.2,1.7-0.9,2.6c0.6-0.2,1.2-0.5,1.8-0.8l8.8-7.8c0.6-0.8,1.8,0.2,1.2,0.8l-5.2,6.2l6.5-6.5c0.8-0.6,2.4-0.5,1.2,1.4
		l-2.1,2.7l0.5-0.5c0.8-0.6,1.5,0.5,0.9,1.1l-4.1,5l2.4-1.8C141,103.2,142.1,104.1,140.9,105.3z"/>
	<g>
		<path class="st0" d="M19.1,306.8L19.1,306.8c-1.2-0.5-1.7-1.8-1.2-2.9l43.2-107c0.5-1.2,1.8-1.7,2.9-1.2l0,0
			c1.2,0.5,1.7,1.8,1.2,2.9L22,305.6C21.5,306.7,20.3,307.3,19.1,306.8z"/>
		<path class="st0" d="M82.4,253.1H46.5c-0.9,0-1.8-0.8-1.8-1.8l0,0c0-0.9,0.8-1.8,1.8-1.8h35.9c0.9,0,1.8,0.8,1.8,1.8l0,0
			C84.2,252.2,83.3,253.1,82.4,253.1z"/>
		<path class="st0" d="M75.9,307.9L75.9,307.9c-1.2-0.5-1.7-1.8-1.2-2.9l40.8-101.1c0.5-1.2,1.8-1.7,2.9-1.2l0,0
			c1.2,0.5,1.7,1.8,1.2,2.9L78.8,306.7C78.3,307.7,76.9,308.4,75.9,307.9z"/>
		<path class="st0" d="M161.6,307.9L161.6,307.9c1.2-0.5,1.7-1.8,1.2-2.9L122,203.9c-0.5-1.2-1.8-1.7-2.9-1.2l0,0
			c-1.2,0.5-1.7,1.8-1.2,2.9l40.8,101.1C159.1,307.7,160.5,308.4,161.6,307.9z"/>
		<path class="st0" d="M107.4,307.9L107.4,307.9c1.2-0.5,1.7-1.8,1.2-2.9L67.8,203.8c-0.5-1.2-1.8-1.7-2.9-1.2l0,0
			c-1.2,0.5-1.7,1.8-1.2,2.9l40.6,101.2C104.8,307.7,106.2,308.4,107.4,307.9z"/>
		<path class="st0" d="M138.6,253.1h-38.5c-0.9,0-1.8-0.8-1.8-1.8l0,0c0-0.9,0.8-1.8,1.8-1.8h38.5c0.9,0,1.8,0.8,1.8,1.8l0,0
			C140.4,252.2,139.6,253.1,138.6,253.1z"/>
		<path class="st1" d="M132,221.3H47.4c-5.5,0-9.9-4.4-9.9-9.9l0,0c0-5.5,4.4-9.9,9.9-9.9H132c5.5,0,9.9,4.4,9.9,9.9l0,0
			C142.1,216.9,137.5,221.3,132,221.3z"/>
	</g>
	<path class="st30" d="M96.4,283.8c0,0-0.2-42.6,16.6-65h17c0,0-25.4,64.1-27.5,67.7C100.4,290.2,96.4,283.8,96.4,283.8z"/>
	<path class="st30" d="M134.9,286.1c0.8-20.4-6.2-47.3-7.5-76.4c-0.3-5.3,4-9.9,9.3-9.9l0,0c5.2,0,10,5.3,10.2,10.5
		c1.5,32.7-2.6,57.5-2.7,75.8C144.4,290.1,135.2,290.1,134.9,286.1z"/>
	<path class="st31" d="M100.2,167.1c0.8,1.1,1.8,2,3,2.4c6.8,3.5,29.5,19.5,35.9,22.8c4.7,2.6,8.8,16.3,9.9,24.2
		c1.1,8.1-45.7,22.7-45.7,14.2c0-8.5,2-8.7-10.8-15.1l-22.8-7c0,0-35.5-7.8-20.2-51.1c19.6,3.5,41.6,6.8,43.8-2.7L100.2,167.1z"/>
	<path class="st30" d="M70.7,101.4h0.9c2.9,0.2,9.6-2.1,9.7-5.3c-5.6-1.8-4-12.8-2.6-23.3c0.2-3.2-2.1-6.1-5-6.2h-0.9
		c-2.9-0.2-6.7,3.3-7,6.5c-0.8,9.7,0.3,18-5.2,20.9C60.6,97.2,67.8,101.2,70.7,101.4z"/>
	<path class="st30" d="M56.4,116.1l42.5-4c0-5.9-2.1-17.7-16-18.1l-19.3-3.2l-9.6,4C48.5,94.8,50.9,116.1,56.4,116.1z"/>
	<path class="st32" d="M77.5,84.5c0,0-1.1,0-1.5-0.2c-0.5-0.2-4.1-2.1-4.1-2.1s1.2,6.8,5.6,7C77.7,89.2,77.5,85.5,77.5,84.5z"/>
	<path class="st33" d="M81.5,92.4c0.8,0.2,1.4,0.6,1.8,1.2c1.8,2.6,7.3,12.6,13.2,20.9c2.3,3.2,2.9,7.5,2.3,10.8
		c-2,10.8-7.8,7-7.6,11.3c0.2,4.4,2.3,2.6,0.3,5.3c-2,2.7,1.4,3.8,0.6,5.6c-0.8,1.8,5.8,8.4,4,12.2c-1.8,3.8-3.8,4.9-12.5,5.2
		s-27.7-2-30-2.7c-2.3-0.8-3.8-8.1-2.7-9.9c1.1-1.8-2.9-5-2.1-8.1s-4.3-18.3-4.3-18.3s-1.2-25.1,3-28.8c2.9-2.4,8.7-4.1,12.2-5
		c1.7-0.5,3.3,0.3,4.4,1.7c2.6,4.1,8.4,11.9,12.6,11c4.7-1.1,3-9.1,2.3-12c-0.2-0.5,0.3-0.9,0.8-0.8L81.5,92.4z"/>
	<path class="st34" d="M83.6,164.8c-4.7,0.2-16.7,0.3-22.8-1.5c-5.3-1.5-5-4.9-6.1-5.2c-2.3-0.8-4.9-4.1-4-5.9
		c1.1-1.8-2.9-5-2.1-8.1s-4.3-18.3-4.3-18.3C50,122.5,62.9,158.4,83.6,164.8z"/>
	<path class="st30" d="M72.5,170.2c-20.7-10.2-25.1-21.3-30.7-25.9c-1.7-1.4-4.3-0.5-5.5,1.4l-2,3.3c-0.9,1.7-0.5,3.8,1.1,4.7
		c10,12.2,20.5,21.8,33.3,21.8c1.4,0.8,3.8,0.2,4.6-1.2l0,0C74,172.9,73.9,170.8,72.5,170.2z"/>
	<path class="st30" d="M38.7,109c-5.2,14.6-7.2,25.1-5,41.9c-0.2,1.7,1.2,3.3,3.3,4l1.2,0.3c3.2,0.9,6.4-0.6,6.8-3.3
		c-1.2-14.8,1.8-28.9,8.2-42.6C55.2,100,47.9,88.6,38.7,109z"/>
	<g>
		<path class="st30" d="M69,167.4l11.3-0.5c0.3,0,0.8,0,1.1,0.3c1.4,0.8,5.3,2.7,9.6,5c0.5,0.3,1.2,2.1-0.9,1.5c0,0,1.5,0.8,1.2,2.7
			c0,0.3,0,0.5-0.2,0.6c-0.3,1.4-1.4,2.3-2.6,1.8c-3.7-1.1-10.8-2.9-12-2.6c-4.1,1.1-8.1-0.8-8.8-1.1c0,0-2.6-1.8-2.1-4.6v-0.2
			C65.8,168.8,67.3,167.4,69,167.4z"/>
	</g>
	<path class="st35" d="M90.6,143.5"/>
	<path class="st30" d="M83.8,84.6c2.6-2.6,5.3-8.2,4.4-13.4l-1.1-9c-1.2-6.7-7-11.3-12.8-10.2l-0.6,0.2c-5.9,1.1-9.7,7.3-8.5,14
		l2,10.8c0.9,5.2,8.4,7.2,11.6,8.7C79.5,86,83,85.4,83.8,84.6z"/>
	<path class="st36" d="M90.2,57.7c1.5,2.9-1.5,6.1-4.6,4.4c-1.4-0.8-2.9-1.1-4.1-1.5c-7.6-2.7-14,2.4-14.2,0l4.6-9.6
		c0,0,4.9-5.2,11.9-0.5C86.7,52.5,88.6,55.1,90.2,57.7z"/>
	<path class="st29" d="M74.6,49.2c0,0-9.1-3.8-16.3,4.7s2,21,2,21s10.7-6.2,9.7-12.3c-0.9-6.1,6.5-10.7,6.5-10.7L74.6,49.2z"/>
	<path class="st30" d="M63.1,74.9c0.9,1.8,2.6,2.7,3.7,2c1.1-0.8,1.2-2.9,0.3-4.7c-0.9-1.8-2.6-2.7-3.7-2
		C62.5,70.9,62.3,73,63.1,74.9z"/>
	<path class="st34" d="M62.6,137.1c-1.2,0-2.1-0.2-2.6-0.3l0.3-0.8c2,0.9,13.7-0.9,16.6-1.7c2.7-0.8,13.5,0,14,0v0.8
		c-0.2,0-11.1-0.8-13.7,0C75.1,135.8,67,137.1,62.6,137.1z"/>
	<path class="st33" d="M49.7,95.7c0,0-13.5,3.5-16.9,30.7l16.1,5.2l9-25L49.7,95.7z"/>
	<path class="st33" d="M79.8,92.4c0,0,11.3-1.8,22.2,15.4l3.8,6.5c0,0-11.3,6.4-11.3,5.8C94.4,119.5,79.8,92.4,79.8,92.4z"/>
	
		<rect x="41.8" y="121.6" transform="matrix(0.285 -0.9585 0.9585 0.285 -79.7832 137.0611)" class="st34" width="20.4" height="0.8"/>
	
		<rect x="94.9" y="106.7" transform="matrix(0.8413 -0.5406 0.5406 0.8413 -46.1081 69.4676)" class="st34" width="0.8" height="13.1"/>
	<g>
		<path class="st30" d="M107.5,291.6l4.4,10.2c-2.1,5.9-3.7,5-9,0.5c-1.5-2-2.6-5.8-6.5-19.8l3.5-0.8
			C104,281.3,104.3,283.4,107.5,291.6z"/>
		<polygon class="st30" points="94.9,307.4 93.2,295.6 97.3,296.2 96.4,307.4 		"/>
		<path class="st30" d="M93.2,295.6c-0.9-12.3,3.3-13.1,3.3-13.1s1.1-0.9,3.2,7.5c0,0,3.5,11.9,12.3,10l5.9,2.6c1.1,0.6,2,1.7,2.1,3
			c0.2,0.9,0,1.7-1.1,1.7h-13.9c-2.1,0-3.8-1.7-4.4-4.6c-0.3-1.4-1.5-3-2.6-4.3C97.2,297.2,93.2,295.6,93.2,295.6z"/>
	</g>
	<g>
		<path class="st30" d="M146.6,291.6l4.4,10.2c-2.1,5.9-3.7,5-9,0.5c-1.5-2-2.6-5.8-6.5-19.8l3.5-0.8
			C143,281.3,143.3,283.2,146.6,291.6z"/>
		<polygon class="st30" points="134,307.4 132.2,295.6 136.3,296.2 135.5,307.4 		"/>
		<path class="st30" d="M132.2,295.6c-0.9-12.3,3.3-13.1,3.3-13.1s1.1-0.9,3.2,7.5c0,0,3.5,11.9,12.3,10l5.9,2.6
			c1.1,0.6,2,1.7,2.1,3c0.2,0.9,0,1.7-1.1,1.7h-13.9c-2.1,0-3.8-1.7-4.4-4.6c-0.3-1.4-1.5-3-2.6-4.3
			C136.3,297.1,132.2,295.6,132.2,295.6z"/>
	</g>
	<path class="st29" d="M52.6,90.4c0,0,5.9,8.2,4.9,13.2c-1.1,4.9,8.4,7.6,7.8-2s-0.8-16.4-0.8-16.4L52.6,90.4z"/>
	<path class="st14" d="M309.5,41.1c-3.5,1.7-18.1,3.5-18.7-1.4c-0.8-6.4,4.6-9,9.6-9.3c18.9-1.4,26.8-1.2,27.4,15.1
		c0,0-0.6,17.5-11.1,16.9c2.1-3.7,2.3-14.9,0.9-13.9C311,53.6,312.7,39.6,309.5,41.1z"/>
	<path class="st3" d="M306.8,75.5c-0.8-2.4-1.4-6.7-2.3-10.2c-0.5-3.2,2.4-6.2,6.4-6.7l1.2-0.2c4-0.6,6.7-5,7.2-1.8
		C320,61,322,69.1,323,72.9s-5,6.4-9.7,6.4S307.5,78.1,306.8,75.5z"/>
	<path class="st37" d="M306,70.9c0,0,5.2-1.5,6.4-4.1c0,0-1.4,6.4-5.6,8.1L306,70.9z"/>
	<path class="st3" d="M299.7,70.6c-2.9-2.6-4.7-4.3-5.5-10L294,45.3c-0.9-7.5,2.4-11.9,9.4-11.6h0.8c7,0.3,13.4,6.7,14.3,14.2
		c4,2.9,2.1,4.6,0.2,14.9c-1.1,2.1-6.5,6.7-10.8,8.7C306.8,71.8,301.4,72.1,299.7,70.6z"/>
	<path class="st3" d="M322.3,55.9c-1.4,2.3-3.5,3-4.7,1.7c-1.4-1.4-1.4-4.3,0-6.5c1.4-2.3,3.5-3,4.7-1.7
		C323.5,50.5,323.5,53.6,322.3,55.9z"/>
	<g>
		<g>
			<path class="st37" d="M319.5,52.8L319.5,52.8c-0.3-0.2-0.5-0.3-0.5-0.5c0,0,0.5-1.4,1.5-1.7c0.6-0.2,1.2,0,1.8,0.5
				c0.2,0.2,0.2,0.3,0,0.6c-0.2,0.2-0.5,0.2-0.6,0.2c-0.5-0.3-0.8-0.5-1.2-0.3c-0.5,0.2-0.9,0.9-0.9,1.1
				C319.8,52.7,319.7,52.8,319.5,52.8z"/>
		</g>
		<g>
			<path class="st37" d="M320.3,53.9c-0.2,0.6-0.5,0.9-0.9,0.8c-0.5-0.2-0.6-0.8-0.5-1.4c0.2-0.6,0.5-0.9,0.9-0.8
				C320.1,52.7,320.4,53.3,320.3,53.9z"/>
		</g>
	</g>
	<g>
		<path class="st37" d="M302,60.6c-1.1,0.2-1.7-0.3-2-0.6c-0.5-0.6-0.3-1.4-0.2-1.8c0.3-0.6,0.9-3.5,1.1-4.6c0-0.2,0.3-0.3,0.5-0.3
			s0.3,0.3,0.3,0.5c-0.2,0.5-0.8,4-1.1,4.9c-0.2,0.3-0.2,0.8,0,1.1c0.3,0.5,1.1,0.5,1.5,0.3c0.2,0,0.5,0.2,0.5,0.3s-0.2,0.5-0.3,0.5
			C302.2,60.6,302,60.6,302,60.6z"/>
	</g>
	<g>
		<path class="st32" d="M82.6,76.7c0.9,0.2,1.4-0.3,1.7-0.6c0.3-0.5,0.3-1.2,0.2-1.5c-0.2-0.5-0.8-3-0.9-4c0-0.2-0.2-0.3-0.5-0.3
			c-0.2,0-0.3,0.2-0.3,0.5c0,0.3,0.6,3.3,0.9,4c0.2,0.3,0.2,0.6,0,0.9c-0.3,0.3-0.8,0.3-1.2,0.3c-0.2,0-0.3,0.2-0.5,0.3
			c0,0.2,0.2,0.3,0.3,0.5C82.4,76.7,82.4,76.7,82.6,76.7z"/>
	</g>
	<path class="st14" d="M290.6,37.9c0,0-1.1,4.7,3.5,5.6c4.6,0.8,16.6-2.6,19.8,0.3c3.3,2.9,0.6,9.9,3.2,9.7
		c3.3-0.2,2.3-12.5,2.3-12.5l-6.4-7.2C313.1,33.9,303.1,25.9,290.6,37.9z"/>
</g>
</svg>
