<?xml version="1.0" encoding="UTF-8" standalone="no"?>
<svg
   viewBox="0 0 32 40"
   version="1.1"
   x="0px"
   y="0px"
   id="svg2"
   sodipodi:docname="icon-1.svg"
   inkscape:version="1.3 (1:1.3+202307231459+0e150ed6c4)"
   xmlns:inkscape="http://www.inkscape.org/namespaces/inkscape"
   xmlns:sodipodi="http://sodipodi.sourceforge.net/DTD/sodipodi-0.dtd"
   xmlns="http://www.w3.org/2000/svg"
   xmlns:svg="http://www.w3.org/2000/svg"
   xmlns:sketch="http://www.bohemiancoding.com/sketch/ns">
  <defs
     id="defs2" />
  <sodipodi:namedview
     id="namedview2"
     pagecolor="#ffffff"
     bordercolor="#666666"
     borderopacity="1.0"
     inkscape:showpageshadow="2"
     inkscape:pageopacity="0.0"
     inkscape:pagecheckerboard="0"
     inkscape:deskcolor="#d1d1d1"
     inkscape:zoom="20.7"
     inkscape:cx="15.990338"
     inkscape:cy="20"
     inkscape:window-width="1920"
     inkscape:window-height="1025"
     inkscape:window-x="0"
     inkscape:window-y="0"
     inkscape:window-maximized="1"
     inkscape:current-layer="svg2" />
  <title
     id="title1">sad-love-face-avatar-boy-man-10</title>
  <desc
     id="desc1">Created with Sketch.</desc>
  <g
     stroke="none"
     stroke-width="1"
     fill="none"
     fill-rule="evenodd"
     sketch:type="MSPage"
     id="g1"
     style="fill:#ffffff">
    <path
       d="M24.5728851,23.0941141 C26.0847779,16.969087 23.5542402,12.1548858 21.4280864,11.0822754 C19.598459,12.7549171 13.9938462,17 10.2890466,17 C12.2343263,15.4384766 12.8488535,12.9394531 12.8488535,12.9394531 C12.8488535,12.9394531 10.9859461,15.7346191 7.24611965,17 C6.45154466,18.5731485 6.67682658,20.3507184 6.78659707,21.5361582 C6.84777749,21.7403698 6.95210509,22.0855229 6.99214296,22.1994274 C7.09055416,22.4793995 7.21210961,22.7924224 7.35775135,23.1301118 C7.774276,24.0958785 8.2986796,25.0616511 8.9372701,25.9603932 C10.738893,28.4959687 13.0675623,30 16,30 C18.9311427,30 21.2399187,28.4973998 23.0104666,25.9636063 C23.6381381,25.065359 24.1509411,24.1000358 24.5559252,23.1346951 C24.5616169,23.1211281 24.5672702,23.1076009 24.5728851,23.0941141 L24.5728851,23.0941141 Z M5.94669386,22.2116429 C4.61458602,20.1217921 3.13011281,13.1987617 4.62664708,8.75830078 C6.40621687,3.47802734 12.6103081,1 15.7729333,1 C18.8013894,1.00000002 21.8450169,1.93994141 23.0552307,3.80615234 C23.0552307,3.80615234 25.0915798,2.75024414 26.9020692,3.80615234 C25.0915798,4.17895508 24.887945,5.19335938 24.887945,5.19335938 C27.9234944,6.90377632 29.4577737,17.0840684 26.1082885,21.6811732 C26.0708438,21.8119773 25.9120331,22.3649335 25.857287,22.526075 C25.7549564,22.8272785 25.6289716,23.1618434 25.4780638,23.5215549 C25.0472763,24.5484017 24.5017812,25.575266 23.8301706,26.5363937 C21.888484,29.3151002 19.2996007,31 16,31 C12.7016943,31 10.0952049,29.3165313 8.12209422,26.5396068 C7.43952798,25.5789739 6.88219633,24.552559 6.43951227,23.5261382 C6.28443097,23.166562 6.15455941,22.832124 6.04872776,22.5310413 C6.02660008,22.4680898 5.98792403,22.3454665 5.94669386,22.2116429 L5.94669386,22.2116429 Z M18.1143819,20.942809 C17.5936829,20.42211 17.5936829,19.57789 18.1143819,19.057191 C18.635081,18.5364919 19.4793009,18.5364919 20,19.057191 C20.5206991,18.5364919 21.364919,18.5364919 21.8856181,19.057191 C22.4063171,19.57789 22.4063171,20.42211 21.8856181,20.942809 L20,22.8284271 L18.1143819,20.942809 Z M10.1143819,20.942809 C9.59368286,20.42211 9.59368286,19.57789 10.1143819,19.057191 C10.635081,18.5364919 11.4793009,18.5364919 12,19.057191 C12.5206991,18.5364919 13.364919,18.5364919 13.8856181,19.057191 C14.4063171,19.57789 14.4063171,20.42211 13.8856181,20.942809 L12,22.8284271 L10.1143819,20.942809 Z M14.4246316,26.7639848 C14.4725953,26.6868331 14.5938453,26.5444206 14.7863941,26.3975309 C15.1127054,26.1485979 15.512309,26 16,26 C16.487691,26 16.8872946,26.1485979 17.2136059,26.3975309 C17.4061547,26.5444206 17.5274047,26.6868331 17.5753684,26.7639848 C17.7211632,26.9985024 18.0294673,27.0704264 18.2639848,26.9246316 C18.4985024,26.7788368 18.5704264,26.4705327 18.4246316,26.2360152 C18.3171754,26.0631669 18.1191505,25.8305794 17.8201344,25.6024691 C17.3271707,25.2264021 16.7183393,25 16,25 C15.2816607,25 14.6728293,25.2264021 14.1798656,25.6024691 C13.8808495,25.8305794 13.6828246,26.0631669 13.5753684,26.2360152 C13.4295736,26.4705327 13.5014976,26.7788368 13.7360152,26.9246316 C13.9705327,27.0704264 14.2788368,26.9985024 14.4246316,26.7639848 Z"
       fill="#000000"
       sketch:type="MSShapeGroup"
       id="path1"
       style="fill:#ffffff" />
  </g>
  <text
     x="0"
     y="47"
     fill="#000000"
     font-size="5px"
     font-weight="bold"
     font-family="'Helvetica Neue', Helvetica, Arial-Unicode, Arial, Sans-serif"
     id="text1">Created by Pham Thi Dieu Linh</text>
  <text
     x="0"
     y="52"
     fill="#000000"
     font-size="5px"
     font-weight="bold"
     font-family="'Helvetica Neue', Helvetica, Arial-Unicode, Arial, Sans-serif"
     id="text2">from the Noun Project</text>
</svg>
