<?xml version="1.0" encoding="UTF-8" standalone="no"?>
<svg
   version="1.1"
   x="0px"
   y="0px"
   viewBox="0 0 100 125"
   enable-background="new 0 0 100 100"
   xml:space="preserve"
   id="svg5"
   sodipodi:docname="icon-2.svg"
   inkscape:version="1.3 (1:1.3+202307231459+0e150ed6c4)"
   xmlns:inkscape="http://www.inkscape.org/namespaces/inkscape"
   xmlns:sodipodi="http://sodipodi.sourceforge.net/DTD/sodipodi-0.dtd"
   xmlns="http://www.w3.org/2000/svg"
   xmlns:svg="http://www.w3.org/2000/svg"><defs
     id="defs5" /><sodipodi:namedview
     id="namedview5"
     pagecolor="#ffffff"
     bordercolor="#666666"
     borderopacity="1.0"
     inkscape:showpageshadow="2"
     inkscape:pageopacity="0.0"
     inkscape:pagecheckerboard="0"
     inkscape:deskcolor="#d1d1d1"
     inkscape:zoom="6.624"
     inkscape:cx="49.969807"
     inkscape:cy="83.031401"
     inkscape:window-width="1920"
     inkscape:window-height="1025"
     inkscape:window-x="0"
     inkscape:window-y="0"
     inkscape:window-maximized="1"
     inkscape:current-layer="svg5" /><path
     d="M18.809,31.347c-3.337,0-5.76,2.515-5.76,5.977c0,3.366,2.445,5.904,5.688,5.904c3.339,0,5.761-2.482,5.761-5.942  C24.402,33.791,22.063,31.347,18.809,31.347z"
     id="path1"
     style="fill:#f9f9f9" /><path
     d="M18.809,56.766c-3.337,0-5.76,2.514-5.76,5.975c0,3.367,2.445,5.906,5.688,5.906c3.339,0,5.761-2.482,5.761-5.943  C24.402,59.209,22.063,56.766,18.809,56.766z"
     id="path2"
     style="fill:#f9f9f9" /><path
     d="M47.033,52.336v-4.679c0-0.794-0.646-1.44-1.439-1.44H27.808c-0.796,0-1.44,0.646-1.44,1.44v4.679  c0,0.795,0.645,1.441,1.44,1.441h17.786C46.388,53.777,47.033,53.131,47.033,52.336z"
     id="path3"
     style="fill:#f9f9f9" /><path
     d="M86.583,73.301l-14.53-23.939l14.289-22.864c0.279-0.444,0.293-1.004,0.04-1.461c-0.256-0.459-0.737-0.742-1.26-0.742h-7.2  c-0.512,0-0.989,0.271-1.244,0.715l-6.629,11.378c-1.254,2.158-2.271,3.967-3.279,5.946c-0.922-1.733-1.951-3.571-3.29-5.93  l-6.41-11.377c-0.254-0.452-0.733-0.732-1.254-0.732h-7.271c-0.517,0-0.995,0.277-1.251,0.728c-0.257,0.448-0.251,1.003,0.014,1.448  l13.816,23.234L46.734,73.52c-0.268,0.445-0.276,0.996-0.021,1.451c0.255,0.453,0.733,0.734,1.254,0.734h7.201  c0.523,0,1.009-0.287,1.262-0.75l5.807-10.613c1.884-3.17,3.109-5.4,4.153-7.428c1.24,2.193,2.623,4.484,4.379,7.34l6.192,10.729  c0.258,0.447,0.733,0.721,1.247,0.721h7.272c0.012,0.002,0.022,0.002,0.029,0c0.798,0,1.44-0.645,1.44-1.439  C86.95,73.893,86.812,73.555,86.583,73.301z"
     id="path4"
     style="fill:#f9f9f9" /></svg>
