<svg xmlns:dc="http://purl.org/dc/elements/1.1/" xmlns:cc="http://creativecommons.org/ns#" xmlns:rdf="http://www.w3.org/1999/02/22-rdf-syntax-ns#" xmlns:svg="http://www.w3.org/2000/svg" xmlns="http://www.w3.org/2000/svg" xmlns:sodipodi="http://sodipodi.sourceforge.net/DTD/sodipodi-0.dtd" xmlns:inkscape="http://www.inkscape.org/namespaces/inkscape" viewBox="0 0 24 30" version="1.1" x="0px" y="0px"><g transform="translate(0,-1028.3622)"><path style="color:#000000;clip-rule:nonzero;display:inline;overflow:visible;visibility:visible;opacity:1;isolation:auto;mix-blend-mode:normal;color-interpolation:sRGB;color-interpolation-filters:linearRGB;solid-color:#000000;solid-opacity:1;fill:#000000;fill-opacity:1;fill-rule:nonzero;stroke:none;stroke-width:1;stroke-linecap:butt;stroke-linejoin:miter;stroke-miterlimit:4;stroke-dasharray:none;stroke-dashoffset:0;stroke-opacity:1;color-rendering:auto;image-rendering:auto;shape-rendering:auto;text-rendering:auto;enable-background:accumulate" d="M 12 0 C 5.3785053 0 0 5.3785 0 12 C 0 18.6215 5.3785053 24 12 24 C 18.621495 24 24 18.6215 24 12 C 24 5.3785 18.621495 0 12 0 z M 12 1 C 18.081055 1 23 5.919 23 12 C 23 18.0811 18.081055 23 12 23 C 5.9189454 23 1 18.0811 1 12 C 1 5.919 5.9189454 1 12 1 z M 6 5 L 6 9 L 9 9 L 9 10 L 6 10 L 6 14 L 9 14 L 9 15 L 6 15 L 6 19 L 18 19 L 18 15 L 10 15 L 10 14 L 18 14 L 18 10 L 10 10 L 10 9 L 18 9 L 18 5 L 6 5 z M 7 6 L 9 6 L 9 8 L 7 8 L 7 6 z M 11 6 L 12 6 L 12 7 L 11 7 L 11 6 z M 13 6 L 14 6 L 14 7 L 13 7 L 13 6 z M 15 6 L 16 6 L 16 7 L 15 7 L 15 6 z M 7 11 L 9 11 L 9 13 L 7 13 L 7 11 z M 11 11 L 12 11 L 12 12 L 11 12 L 11 11 z M 13 11 L 14 11 L 14 12 L 13 12 L 13 11 z M 15 11 L 16 11 L 16 12 L 15 12 L 15 11 z M 7 16 L 9 16 L 9 18 L 7 18 L 7 16 z M 11 16 L 12 16 L 12 17 L 11 17 L 11 16 z M 13 16 L 14 16 L 14 17 L 13 17 L 13 16 z M 15 16 L 16 16 L 16 17 L 15 17 L 15 16 z " transform="translate(0,1028.3622)"/></g><text x="0" y="39" fill="#000000" font-size="5px" font-weight="bold" font-family="'Helvetica Neue', Helvetica, Arial-Unicode, Arial, Sans-serif">Created by Dev Patel</text><text x="0" y="44" fill="#000000" font-size="5px" font-weight="bold" font-family="'Helvetica Neue', Helvetica, Arial-Unicode, Arial, Sans-serif">from the Noun Project</text></svg>