<?xml version="1.0" standalone="no"?>
<!DOCTYPE svg PUBLIC "-//W3C//DTD SVG 20010904//EN"
 "http://www.w3.org/TR/2001/REC-SVG-20010904/DTD/svg10.dtd">
<svg version="1.0" xmlns="http://www.w3.org/2000/svg"
 width="460.000000pt" height="460.000000pt" viewBox="0 0 460.000000 460.000000"
 preserveAspectRatio="xMidYMid meet">
<metadata>
Created by potrace 1.14, written by Peter Selinger 2001-2017
</metadata>
<g transform="translate(0.000000,460.000000) scale(0.100000,-0.100000)"
fill="#000000" stroke="none">
<path d="M896 4582 c-5 -19 -13 -61 -21 -112 -3 -19 -10 -60 -15 -90 -5 -30
-12 -68 -14 -85 -3 -16 -12 -70 -21 -120 -9 -49 -31 -180 -50 -290 -19 -110
-37 -211 -39 -225 -3 -14 -7 -43 -11 -65 -3 -22 -7 -47 -10 -55 -2 -8 -6 -37
-10 -65 -3 -27 -8 -57 -10 -65 -3 -12 -46 -254 -60 -340 -2 -14 -20 -119 -40
-235 -20 -115 -38 -219 -40 -230 -1 -11 -10 -63 -19 -115 -10 -52 -19 -108
-22 -125 -2 -16 -9 -52 -14 -80 -5 -27 -12 -68 -15 -90 -3 -22 -10 -67 -16
-100 -6 -33 -13 -70 -15 -82 -2 -13 -6 -35 -9 -50 -14 -79 -47 -271 -50 -293
-2 -14 -17 -104 -34 -200 -16 -96 -32 -191 -36 -210 -3 -19 -10 -60 -15 -90
-23 -126 -43 -243 -56 -325 -3 -22 -12 -74 -19 -115 -7 -41 -11 -77 -9 -79 2
-3 317 -5 700 -5 622 -1 697 1 704 15 5 8 11 49 15 90 12 160 16 195 22 214
10 38 52 82 95 103 54 25 106 32 283 37 193 6 250 20 332 82 69 53 95 170 67
303 -17 78 -13 100 28 151 34 43 39 80 15 126 -15 27 -14 29 29 75 26 28 42
53 40 65 -2 10 -10 47 -17 82 -13 63 -13 64 10 80 14 9 54 28 90 43 82 35 111
63 118 116 8 61 -31 133 -174 317 -82 106 -133 176 -147 202 -24 48 -20 106
15 186 28 63 31 78 26 136 -5 62 -66 265 -147 496 -36 102 -96 226 -139 288
-42 62 -168 178 -252 232 -79 52 -228 125 -297 146 -42 12 -44 26 -6 33 10 3
51 11 89 20 150 34 267 44 475 41 113 -1 221 -6 240 -9 257 -46 393 -89 559
-177 208 -111 345 -252 432 -446 33 -72 158 -441 184 -543 22 -84 17 -156 -13
-216 -18 -35 -25 -67 -26 -110 -1 -70 1 -73 180 -309 119 -157 154 -218 154
-269 0 -66 -16 -84 -127 -136 -68 -33 -103 -55 -103 -66 0 -9 7 -42 15 -74 18
-69 12 -91 -39 -139 -35 -34 -35 -34 -19 -65 24 -45 17 -83 -24 -143 l-36 -53
14 -57 c8 -32 14 -94 14 -138 -1 -92 -21 -142 -77 -189 -69 -58 -140 -75 -347
-82 -276 -9 -309 -25 -350 -173 -29 -103 -51 -275 -66 -506 -3 -49 -8 -106
-10 -125 -2 -19 -7 -73 -10 -120 -4 -47 -10 -104 -15 -127 l-7 -42 321 -1
c176 -1 550 -3 829 -5 l508 -4 -5 67 c-3 37 -8 107 -11 157 -3 50 -7 110 -10
135 -2 25 -7 95 -10 155 -8 131 -13 196 -19 290 -3 39 -8 111 -11 160 -4 50
-8 113 -10 141 -2 28 -7 96 -10 152 -3 56 -8 123 -10 149 -2 27 -7 93 -10 148
-11 166 -13 206 -20 295 -9 132 -14 197 -20 300 -4 52 -8 115 -11 140 -2 25
-6 92 -9 150 -4 58 -8 125 -10 150 -2 25 -7 95 -10 155 -4 61 -8 121 -10 135
-2 14 -7 81 -10 150 -4 69 -8 141 -10 160 -2 19 -6 80 -10 135 -3 55 -8 120
-10 145 -3 25 -7 90 -10 145 -3 55 -8 127 -10 160 -5 65 -11 158 -21 300 -3
50 -7 110 -9 135 -2 25 -7 95 -11 155 -4 61 -8 124 -10 140 -1 17 -3 41 -3 55
l-1 25 -313 2 c-2554 14 -2856 13 -2861 -5z"/>
</g>
</svg>
